HIERARCHY
ROOT Hips
{
    OFFSET   0.000000   0.000000   0.000000
    CHANNELS 6 Xposition Yposition Zposition Zrotation Xrotation Yrotation
    JOINT Chest
    {
        OFFSET   0.000000   8.007230   0.000000
        CHANNELS 3 Zrotation Xrotation Yrotation
        JOINT Chest2
        {
            OFFSET   0.000000  22.077100   0.000000
            CHANNELS 3 Zrotation Xrotation Yrotation
            JOINT Neck
            {
                OFFSET   0.000000  23.254800  -0.000021
                CHANNELS 3 Zrotation Xrotation Yrotation
                JOINT Head
                {
                    OFFSET   0.000000  14.370000   1.956610
                    CHANNELS 3 Zrotation Xrotation Yrotation
                    End Site
                    {
                        OFFSET   0.000000  19.566000   0.000000
                    }
                }
            }
            JOINT LeftCollar
            {
                OFFSET   3.911900  19.017000  -0.467063
                CHANNELS 3 Zrotation Xrotation Yrotation
                JOINT LeftShoulder
                {
                    OFFSET  10.383700   0.000000   0.000000
                    CHANNELS 3 Zrotation Xrotation Yrotation
                    JOINT LeftElbow
                    {
                        OFFSET  26.662100   0.001529   0.000325
                        CHANNELS 3 Zrotation Xrotation Yrotation
                        JOINT LeftWrist
                        {
                            OFFSET  28.869000  -0.000011  -0.000096
                            CHANNELS 3 Zrotation Xrotation Yrotation
                            JOINT LeftFinger0
                            {
                                OFFSET   2.044650  -2.323460   3.252850
                                CHANNELS 3 Zrotation Xrotation Yrotation
                                JOINT LeftFinger01
                                {
                                    OFFSET   3.088130   0.000000   0.000000
                                    CHANNELS 3 Zrotation Xrotation Yrotation
                                    JOINT LeftFinger02
                                    {
                                        OFFSET   2.639460   0.000000   0.000000
                                        CHANNELS 3 Zrotation Xrotation Yrotation
                                        End Site
                                        {
                                            OFFSET   2.582190   0.000000   0.000000
                                        }
                                    }
                                }
                            }
                            JOINT LeftFinger1
                            {
                                OFFSET   8.364480   0.000000   3.252850
                                CHANNELS 3 Zrotation Xrotation Yrotation
                                JOINT LeftFinger11
                                {
                                    OFFSET   4.646930   0.000000   0.000000
                                    CHANNELS 3 Zrotation Xrotation Yrotation
                                    JOINT LeftFinger12
                                    {
                                        OFFSET   2.323460   0.000000   0.000000
                                        CHANNELS 3 Zrotation Xrotation Yrotation
                                        End Site
                                        {
                                            OFFSET   2.273050   0.000000   0.000000
                                        }
                                    }
                                }
                            }
                            JOINT LeftFinger2
                            {
                                OFFSET   8.364480   0.000016   1.078090
                                CHANNELS 3 Zrotation Xrotation Yrotation
                                JOINT LeftFinger21
                                {
                                    OFFSET   5.111620   0.000000   0.000000
                                    CHANNELS 3 Zrotation Xrotation Yrotation
                                    JOINT LeftFinger22
                                    {
                                        OFFSET   2.788160   0.000017   0.000000
                                        CHANNELS 3 Zrotation Xrotation Yrotation
                                        End Site
                                        {
                                            OFFSET   2.727660   0.000000   0.000000
                                        }
                                    }
                                }
                            }
                            JOINT LeftFinger3
                            {
                                OFFSET   7.899780   0.000015  -1.078090
                                CHANNELS 3 Zrotation Xrotation Yrotation
                                JOINT LeftFinger31
                                {
                                    OFFSET   4.646920   0.000000   0.000000
                                    CHANNELS 3 Zrotation Xrotation Yrotation
                                    JOINT LeftFinger32
                                    {
                                        OFFSET   2.323470   0.000000   0.000000
                                        CHANNELS 3 Zrotation Xrotation Yrotation
                                        End Site
                                        {
                                            OFFSET   2.273050   0.000000   0.000000
                                        }
                                    }
                                }
                            }
                            JOINT LeftFinger4
                            {
                                OFFSET   7.435090   0.000000  -3.252850
                                CHANNELS 3 Zrotation Xrotation Yrotation
                                JOINT LeftFinger41
                                {
                                    OFFSET   3.717550   0.000000   0.000000
                                    CHANNELS 3 Zrotation Xrotation Yrotation
                                    JOINT LeftFinger42
                                    {
                                        OFFSET   1.858760   0.000000   0.000000
                                        CHANNELS 3 Zrotation Xrotation Yrotation
                                        End Site
                                        {
                                            OFFSET   1.818440   0.000000   0.000000
                                        }
                                    }
                                }
                            }
                        }
                    }
                }
            }
            JOINT RightCollar
            {
                OFFSET  -3.911900  19.017000  -0.467062
                CHANNELS 3 Zrotation Xrotation Yrotation
                JOINT RightShoulder
                {
                    OFFSET -10.383700   0.000015   0.000000
                    CHANNELS 3 Zrotation Xrotation Yrotation
                    JOINT RightElbow
                    {
                        OFFSET -26.662100   0.001341   0.000385
                        CHANNELS 3 Zrotation Xrotation Yrotation
                        JOINT RightWrist
                        {
                            OFFSET -28.869000   0.000025  -0.000080
                            CHANNELS 3 Zrotation Xrotation Yrotation
                            JOINT RightFinger0
                            {
                                OFFSET  -2.044650  -2.323490   3.252850
                                CHANNELS 3 Zrotation Xrotation Yrotation
                                JOINT RightFinger01
                                {
                                    OFFSET  -3.088130   0.000000   0.000000
                                    CHANNELS 3 Zrotation Xrotation Yrotation
                                    JOINT RightFinger02
                                    {
                                        OFFSET  -2.639460   0.000000   0.000000
                                        CHANNELS 3 Zrotation Xrotation Yrotation
                                        End Site
                                        {
                                            OFFSET  -2.582190   0.000000   0.000000
                                        }
                                    }
                                }
                            }
                            JOINT RightFinger1
                            {
                                OFFSET  -8.364480   0.000000   3.252850
                                CHANNELS 3 Zrotation Xrotation Yrotation
                                JOINT RightFinger11
                                {
                                    OFFSET  -4.646930   0.000000   0.000000
                                    CHANNELS 3 Zrotation Xrotation Yrotation
                                    JOINT RightFinger12
                                    {
                                        OFFSET  -2.323470   0.000000   0.000000
                                        CHANNELS 3 Zrotation Xrotation Yrotation
                                        End Site
                                        {
                                            OFFSET  -2.273050   0.000000   0.000000
                                        }
                                    }
                                }
                            }
                            JOINT RightFinger2
                            {
                                OFFSET  -8.364480   0.000000   1.078090
                                CHANNELS 3 Zrotation Xrotation Yrotation
                                JOINT RightFinger21
                                {
                                    OFFSET  -5.111610   0.000000   0.000000
                                    CHANNELS 3 Zrotation Xrotation Yrotation
                                    JOINT RightFinger22
                                    {
                                        OFFSET  -2.788160   0.000000   0.000000
                                        CHANNELS 3 Zrotation Xrotation Yrotation
                                        End Site
                                        {
                                            OFFSET  -2.727660   0.000000   0.000000
                                        }
                                    }
                                }
                            }
                            JOINT RightFinger3
                            {
                                OFFSET  -7.899780   0.000000  -1.078090
                                CHANNELS 3 Zrotation Xrotation Yrotation
                                JOINT RightFinger31
                                {
                                    OFFSET  -4.646920   0.000000   0.000000
                                    CHANNELS 3 Zrotation Xrotation Yrotation
                                    JOINT RightFinger32
                                    {
                                        OFFSET  -2.323470   0.000000   0.000000
                                        CHANNELS 3 Zrotation Xrotation Yrotation
                                        End Site
                                        {
                                            OFFSET  -2.273050   0.000000   0.000000
                                        }
                                    }
                                }
                            }
                            JOINT RightFinger4
                            {
                                OFFSET  -7.435090   0.000000  -3.252850
                                CHANNELS 3 Zrotation Xrotation Yrotation
                                JOINT RightFinger41
                                {
                                    OFFSET  -3.717550   0.000000   0.000000
                                    CHANNELS 3 Zrotation Xrotation Yrotation
                                    JOINT RightFinger42
                                    {
                                        OFFSET  -1.858770   0.000000   0.000000
                                        CHANNELS 3 Zrotation Xrotation Yrotation
                                        End Site
                                        {
                                            OFFSET  -1.818440   0.000000   0.000000
                                        }
                                    }
                                }
                            }
                        }
                    }
                }
            }
        }
    }
    JOINT LeftHip
    {
        OFFSET   9.783010   0.000000   0.000000
        CHANNELS 3 Zrotation Xrotation Yrotation
        JOINT LeftKnee
        {
            OFFSET   0.000070 -41.789100   0.000028
            CHANNELS 3 Zrotation Xrotation Yrotation
            JOINT LeftAnkle
            {
                OFFSET   0.000087 -41.133200  -0.000100
                CHANNELS 3 Zrotation Xrotation Yrotation
                JOINT LeftToe
                {
                    OFFSET   0.000000  -6.358960  14.674500
                    CHANNELS 3 Zrotation Xrotation Yrotation
                    End Site
                    {
                        OFFSET   0.000000   0.000000   3.913200
                    }
                }
            }
        }
    }
    JOINT RightHip
    {
        OFFSET  -9.783020   0.000000   0.000000
        CHANNELS 3 Zrotation Xrotation Yrotation
        JOINT RightKnee
        {
            OFFSET   0.000044 -41.789100  -0.000870
            CHANNELS 3 Zrotation Xrotation Yrotation
            JOINT RightAnkle
            {
                OFFSET  -0.000090 -41.133200  -0.000245
                CHANNELS 3 Zrotation Xrotation Yrotation
                JOINT RightToe
                {
                    OFFSET   0.000000  -6.358960  14.674500
                    CHANNELS 3 Zrotation Xrotation Yrotation
                    End Site
                    {
                        OFFSET   0.000000   0.000000   3.913200
                    }
                }
            }
        }
    }
}
MOTION
Frames: 4
Frame Time:   0.016667
 -0.051980  89.938900   0.654503  -0.982434  -2.617940  -1.483670  -0.761668   2.292880   0.255459  -1.535400   4.582150   0.542078  16.265800  -0.072960   0.018717  26.722800  -0.118286  -1.624240  -2.944580  -0.030871   2.684850 -73.875400  20.991200  -3.288670  -2.394950  -7.518870 -14.979300  14.423200   2.815070   9.060640  42.005300  32.604800 -68.865000 -24.515700  -0.002046  -0.000818  -7.257860  -0.003433  -0.001711 -31.852100   7.850490 -12.399200 -26.759600  -0.001548  -0.015425 -18.731700  -0.001012  -0.011625 -28.675700   2.765640  -5.042220 -42.499900  -0.035300  -0.075490 -28.304900  -0.004908  -0.055368 -27.709700   2.680100  -5.088120 -30.948000  -0.023633  -0.056772 -20.611400   0.003121  -0.040933 -29.776000   1.283430  -2.241660 -44.701600  -0.021604  -0.062314 -29.771200   0.006165  -0.043522   9.081690   1.341650   1.920980  72.335100  12.508600   1.895620   1.867850  -5.169970  13.451400 -17.705600 -12.913200   5.239400 -37.262900  34.063600  70.609000  32.478800   0.001162  -0.000684  11.239400   0.001876   0.001667  32.028800   1.370030   2.189430  26.226700  -0.000171  -0.001591  18.358700  -0.002182   0.000087  28.085500  -1.420160  -2.658260  32.803500  -0.005039  -0.021070  21.847100  -0.008868  -0.004106  28.530300  -1.937610  -3.558160  37.265900  -0.014411  -0.018317  24.819100  -0.011515  -0.008961  40.228400  -2.619130  -3.091450  60.448500  -0.014056  -0.012589  40.258700  -0.000233  -0.000951   0.833863   5.069670   1.691930   0.644129   0.241768  14.482000  -5.762010  -4.153420   6.559830  -0.000000   0.000000   0.000000   1.456190   5.389310  -9.283730  -0.150874   0.914956  -8.338110  -9.439390   0.188856   1.906810  -0.000000   0.000000   0.000000
 -0.053886  89.939700   0.651581  -0.998511  -2.730940  -1.386310  -0.756538   2.337630   0.153414  -1.518540   4.672830   0.338954  17.135300   0.450936  -0.142832  28.158500   0.659733  -1.602670  -2.550880   0.140399   3.019260 -74.414000  21.093700  -3.528520  -2.462230  -7.580940 -14.992000  14.382800   2.905960   9.053820  42.159900  32.826200 -69.183200 -24.432500  -0.002749   0.002243  -7.216280  -0.003438   0.002626 -31.828400   7.832590 -12.385000 -26.737800  -0.001582  -0.016648 -18.716400  -0.001014  -0.012659 -28.680700   2.704150  -4.929560 -42.418400  -0.045711  -0.067506 -28.250600  -0.015197  -0.053020 -27.707500   2.619750  -4.974710 -30.896500  -0.010111  -0.026746 -20.577100   0.002190  -0.018613 -29.740400   1.289240  -2.254680 -44.648800   0.008197  -0.004301 -29.736100   0.008573   0.000881   8.971650   1.340520   2.060340  72.241300  12.774600   2.065710   1.716990  -5.312990  13.551000 -17.909000 -13.064100   5.067870 -37.303200  34.043700  70.595100  32.413100   0.001163  -0.000672  11.206600   0.001844   0.001668  32.060400   1.417610   2.259630  26.253800   0.003114  -0.003535  18.377700  -0.002198  -0.004666  28.101000  -1.356530  -2.537740  32.899100  -0.005488  -0.019909  21.910700  -0.008923  -0.004054  28.539500  -1.882920  -3.457020  37.335200  -0.012796  -0.031200  24.865300  -0.016380  -0.015596  40.272800  -2.548750  -3.000800  60.508100  -0.015569  -0.012621  40.298400  -0.000328  -0.000949   0.869801   5.168280   1.662010   0.657773   0.264648  14.469000  -5.775330  -4.157180   6.504400  -0.000000   0.000000   0.000000   1.516490   5.506030  -9.346200  -0.154130   0.927494  -8.350900  -9.464920   0.155812   1.871830   0.000000   0.000000  -0.000000
 -0.054453  89.945500   0.645904  -1.014850  -2.852480  -1.279100  -0.742906   2.418450   0.018791  -1.488600   4.836440   0.069086  17.829700   0.921024  -0.297478  29.307200   1.328710  -1.451200  -2.223350   0.273363   3.391140 -74.914500  21.341400  -3.715430  -2.589760  -7.671740 -15.023800  14.287900   3.111600   9.020610  42.317600  33.033600 -69.499400 -24.341800  -0.004157   0.004252  -7.170940  -0.003442   0.004000 -31.768900   7.811220 -12.377600 -26.687100  -0.001587  -0.016822 -18.681000  -0.001014  -0.012807 -28.684000   2.646990  -4.825110 -42.236800  -0.053889  -0.062484 -28.129600  -0.020938  -0.050672 -27.689800   2.562700  -4.870040 -30.773000   0.008622   0.001356 -20.494900   0.001930   0.002950 -29.653000   1.303430  -2.287270 -44.519200   0.038532   0.037995 -29.649800   0.010982   0.034235   8.864150   1.333260   2.256480  72.048400  12.949500   2.237750   1.549540  -5.403920  13.734500 -18.134700 -13.267500   4.926630 -37.282400  33.990300  70.556400  32.383500   0.001172  -0.000667  11.191800   0.001812   0.001678  32.133100   1.444680   2.298320  26.314700   0.008581  -0.006817  18.420300  -0.002215  -0.010812  28.125600  -1.322770  -2.473480  33.065400  -0.005918  -0.018576  22.021500  -0.008940  -0.004001  28.551000  -1.853740  -3.402890  37.489000  -0.010948  -0.039509  24.967700  -0.019854  -0.019674  40.373300  -2.512260  -2.951450  60.657800  -0.016849  -0.012637  40.398100  -0.000458  -0.000946   0.909082   5.271130   1.635290   0.672785   0.287546  14.443300  -5.789840  -4.160960   6.446710  -0.000000   0.000000  -0.000000   1.578780   5.630700  -9.396420  -0.157448   0.943348  -8.378060  -9.490010   0.122520   1.824500   0.000000   0.000000   0.000000
 -0.054920  89.963700   0.640448  -1.037860  -2.973670  -1.174560  -0.665434   2.502820  -0.151959  -1.328120   5.007110  -0.275617  18.288400   1.271150  -0.418420  30.078900   1.808240  -0.967454  -2.030940   0.328157   3.740720 -75.325500  21.727800  -3.782240  -2.750700  -7.812640 -15.079500  14.141000   3.395080   8.947970  42.462000  33.187200 -69.766800 -24.240100  -0.005806   0.004124  -7.120060  -0.003441   0.003318 -31.680100   7.801720 -12.402100 -26.614700  -0.000075  -0.007206 -18.630400  -0.001009  -0.005438 -28.684300   2.606080  -4.751000 -41.984300  -0.045788  -0.042493 -27.961500  -0.019496  -0.036669 -27.660500   2.521400  -4.796850 -30.588300   0.015945   0.014640 -20.371900   0.001588   0.012972 -29.519500   1.325080  -2.337960 -44.320800   0.039155   0.043442 -29.517700   0.010827   0.037669   8.765300   1.287460   2.523970  71.742200  12.983400   2.395540   1.402620  -5.397810  13.929100 -18.362600 -13.547300   4.829480 -37.191000  33.887300  70.492100  32.432300   0.001231  -0.000690  11.216200   0.001787   0.001708  32.241800   1.433100   2.272150  26.403300   0.014075  -0.010132  18.482300  -0.002234  -0.013159  28.154900  -1.343850  -2.510490  33.294900  -0.006304  -0.017287  22.174400  -0.008852  -0.003944  28.564100  -1.880960  -3.451310  37.711200  -0.009101  -0.039399  25.115700  -0.019706  -0.019622  40.536100  -2.555540  -2.987620  60.905200  -0.017778  -0.007034  40.562900  -0.000550  -0.000942   0.960355   5.401130   1.613490   0.684051   0.274700  14.414000  -5.804520  -4.157350   6.390670  -0.000000   0.000000  -0.000000   1.647200   5.759720  -9.416050  -0.162933   0.973757  -8.418360  -9.511590   0.089662   1.764680   0.000000   0.000000   0.000000
